<?xml version="1.0" standalone="no"?><!DOCTYPE svg PUBLIC "-//W3C//DTD SVG 1.1//EN" "http://www.w3.org/Graphics/SVG/1.1/DTD/svg11.dtd"><svg t="1593851443887" class="icon" viewBox="0 0 1024 1024" version="1.1" xmlns="http://www.w3.org/2000/svg" p-id="1195" xmlns:xlink="http://www.w3.org/1999/xlink" width="16" height="16"><defs><style type="text/css"></style></defs><path d="M184.82 348.41h654.36v23.37H184.82v-23.37z" p-id="1196" fill="#ffffff"></path><path d="M208.19 371.78h607.62v23.37H208.19v-23.37zM231.56 395.15h560.88v23.37H231.56v-23.37zM254.93 418.52h514.14v23.37H254.93v-23.37zM278.3 441.89h467.4v23.37H278.3v-23.37zM301.67 465.26h420.66v23.37H301.67v-23.37zM325.04 488.63h373.92V512H325.04v-23.37zM348.41 512h327.18v23.37H348.41V512zM371.78 535.37h280.44v23.37H371.78v-23.37zM395.15 558.74h233.7v23.37h-233.7v-23.37zM418.52 582.11h186.96v23.37H418.52v-23.37zM441.89 605.48h140.22v23.37H441.89v-23.37zM465.26 628.85h93.48v23.37h-93.48v-23.37zM488.63 652.22h46.74v23.37h-46.74v-23.37z" p-id="1197" fill="#ffffff"></path></svg>